<?xml version="1.0" encoding="UTF-8" standalone="no"?>
<!DOCTYPE svg PUBLIC "-//W3C//DTD SVG 1.1//EN"
 "http://www.w3.org/Graphics/SVG/1.1/DTD/svg11.dtd">
<!-- Generated by graphviz version 2.46.1 (20210213.1702)
 -->
<!-- Pages: 1 -->
<svg width="618pt" height="404pt"
 viewBox="0.00 0.00 618.37 404.00" xmlns="http://www.w3.org/2000/svg" xmlns:xlink="http://www.w3.org/1999/xlink">
<g id="graph0" class="graph" transform="scale(1 1) rotate(0) translate(4 400)">
<polygon fill="white" stroke="transparent" points="-4,4 -4,-400 614.37,-400 614.37,4 -4,4"/>
<!-- [root] azurerm_resource_group.abc -->
<g id="node1" class="node">
<title>[root] azurerm_resource_group.abc</title>
<polygon fill="none" stroke="black" points="420.63,-108 245.63,-108 245.63,-72 420.63,-72 420.63,-108"/>
<text text-anchor="middle" x="333.13" y="-86.3" font-family="Times,serif" font-size="14.00">azurerm_resource_group.abc</text>
</g>
<!-- [root] provider.azurerm -->
<g id="node4" class="node">
<title>[root] provider.azurerm</title>
<polygon fill="none" stroke="black" points="174.13,-36 72.92,-18 174.13,0 275.35,-18 174.13,-36"/>
<text text-anchor="middle" x="174.13" y="-14.3" font-family="Times,serif" font-size="14.00">provider.azurerm</text>
</g>
<!-- [root] azurerm_resource_group.abc&#45;&gt;[root] provider.azurerm -->
<g id="edge1" class="edge">
<title>[root] azurerm_resource_group.abc&#45;&gt;[root] provider.azurerm</title>
<path fill="none" stroke="black" d="M294.24,-71.88C268.92,-60.73 236.08,-46.27 211.14,-35.29"/>
<polygon fill="black" stroke="black" points="212.23,-31.95 201.67,-31.12 209.41,-38.35 212.23,-31.95"/>
</g>
<!-- [root] var.location -->
<g id="node5" class="node">
<title>[root] var.location</title>
<polygon fill="none" stroke="black" points="367.13,-36 293.13,-36 293.13,0 373.13,0 373.13,-30 367.13,-36"/>
<polyline fill="none" stroke="black" points="367.13,-36 367.13,-30 "/>
<polyline fill="none" stroke="black" points="373.13,-30 367.13,-30 "/>
<text text-anchor="middle" x="333.13" y="-14.3" font-family="Times,serif" font-size="14.00">var.location</text>
</g>
<!-- [root] azurerm_resource_group.abc&#45;&gt;[root] var.location -->
<g id="edge2" class="edge">
<title>[root] azurerm_resource_group.abc&#45;&gt;[root] var.location</title>
<path fill="none" stroke="black" d="M333.13,-71.7C333.13,-63.98 333.13,-54.71 333.13,-46.11"/>
<polygon fill="black" stroke="black" points="336.63,-46.1 333.13,-36.1 329.63,-46.1 336.63,-46.1"/>
</g>
<!-- [root] var.rg -->
<g id="node6" class="node">
<title>[root] var.rg</title>
<polygon fill="none" stroke="black" points="439.13,-36 391.13,-36 391.13,0 445.13,0 445.13,-30 439.13,-36"/>
<polyline fill="none" stroke="black" points="439.13,-36 439.13,-30 "/>
<polyline fill="none" stroke="black" points="445.13,-30 439.13,-30 "/>
<text text-anchor="middle" x="418.13" y="-14.3" font-family="Times,serif" font-size="14.00">var.rg</text>
</g>
<!-- [root] azurerm_resource_group.abc&#45;&gt;[root] var.rg -->
<g id="edge3" class="edge">
<title>[root] azurerm_resource_group.abc&#45;&gt;[root] var.rg</title>
<path fill="none" stroke="black" d="M354.15,-71.7C364.85,-62.88 378.02,-52.03 389.63,-42.47"/>
<polygon fill="black" stroke="black" points="391.87,-45.16 397.36,-36.1 387.42,-39.76 391.87,-45.16"/>
</g>
<!-- [root] azurerm_virtual_network.a -->
<g id="node2" class="node">
<title>[root] azurerm_virtual_network.a</title>
<polygon fill="none" stroke="black" points="415.13,-180 251.13,-180 251.13,-144 415.13,-144 415.13,-180"/>
<text text-anchor="middle" x="333.13" y="-158.3" font-family="Times,serif" font-size="14.00">azurerm_virtual_network.a</text>
</g>
<!-- [root] azurerm_virtual_network.a&#45;&gt;[root] azurerm_resource_group.abc -->
<g id="edge4" class="edge">
<title>[root] azurerm_virtual_network.a&#45;&gt;[root] azurerm_resource_group.abc</title>
<path fill="none" stroke="black" d="M333.13,-143.7C333.13,-135.98 333.13,-126.71 333.13,-118.11"/>
<polygon fill="black" stroke="black" points="336.63,-118.1 333.13,-108.1 329.63,-118.1 336.63,-118.1"/>
</g>
<!-- [root] azurerm_virtual_network.b -->
<g id="node3" class="node">
<title>[root] azurerm_virtual_network.b</title>
<polygon fill="none" stroke="black" points="415.63,-252 250.63,-252 250.63,-216 415.63,-216 415.63,-252"/>
<text text-anchor="middle" x="333.13" y="-230.3" font-family="Times,serif" font-size="14.00">azurerm_virtual_network.b</text>
</g>
<!-- [root] azurerm_virtual_network.b&#45;&gt;[root] azurerm_virtual_network.a -->
<g id="edge5" class="edge">
<title>[root] azurerm_virtual_network.b&#45;&gt;[root] azurerm_virtual_network.a</title>
<path fill="none" stroke="black" d="M333.13,-215.7C333.13,-207.98 333.13,-198.71 333.13,-190.11"/>
<polygon fill="black" stroke="black" points="336.63,-190.1 333.13,-180.1 329.63,-190.1 336.63,-190.1"/>
</g>
<!-- [root] meta.count&#45;boundary (EachMode fixup) -->
<g id="node7" class="node">
<title>[root] meta.count&#45;boundary (EachMode fixup)</title>
<ellipse fill="none" stroke="black" cx="176.13" cy="-306" rx="176.27" ry="18"/>
<text text-anchor="middle" x="176.13" y="-302.3" font-family="Times,serif" font-size="14.00">[root] meta.count&#45;boundary (EachMode fixup)</text>
</g>
<!-- [root] meta.count&#45;boundary (EachMode fixup)&#45;&gt;[root] azurerm_virtual_network.b -->
<g id="edge6" class="edge">
<title>[root] meta.count&#45;boundary (EachMode fixup)&#45;&gt;[root] azurerm_virtual_network.b</title>
<path fill="none" stroke="black" d="M213.74,-288.23C235.27,-278.63 262.49,-266.5 285.5,-256.24"/>
<polygon fill="black" stroke="black" points="287.04,-259.39 294.75,-252.12 284.19,-252.99 287.04,-259.39"/>
</g>
<!-- [root] provider.azurerm (close) -->
<g id="node8" class="node">
<title>[root] provider.azurerm (close)</title>
<ellipse fill="none" stroke="black" cx="490.13" cy="-306" rx="120.48" ry="18"/>
<text text-anchor="middle" x="490.13" y="-302.3" font-family="Times,serif" font-size="14.00">[root] provider.azurerm (close)</text>
</g>
<!-- [root] provider.azurerm (close)&#45;&gt;[root] azurerm_virtual_network.b -->
<g id="edge7" class="edge">
<title>[root] provider.azurerm (close)&#45;&gt;[root] azurerm_virtual_network.b</title>
<path fill="none" stroke="black" d="M453.72,-288.76C431.99,-279.07 404.14,-266.66 380.68,-256.2"/>
<polygon fill="black" stroke="black" points="381.82,-252.88 371.26,-252 378.97,-259.27 381.82,-252.88"/>
</g>
<!-- [root] root -->
<g id="node9" class="node">
<title>[root] root</title>
<ellipse fill="none" stroke="black" cx="333.13" cy="-378" rx="47.39" ry="18"/>
<text text-anchor="middle" x="333.13" y="-374.3" font-family="Times,serif" font-size="14.00">[root] root</text>
</g>
<!-- [root] root&#45;&gt;[root] meta.count&#45;boundary (EachMode fixup) -->
<g id="edge8" class="edge">
<title>[root] root&#45;&gt;[root] meta.count&#45;boundary (EachMode fixup)</title>
<path fill="none" stroke="black" d="M303.6,-363.83C280.9,-353.71 249.09,-339.53 222.93,-327.87"/>
<polygon fill="black" stroke="black" points="224.14,-324.57 213.58,-323.7 221.29,-330.96 224.14,-324.57"/>
</g>
<!-- [root] root&#45;&gt;[root] provider.azurerm (close) -->
<g id="edge9" class="edge">
<title>[root] root&#45;&gt;[root] provider.azurerm (close)</title>
<path fill="none" stroke="black" d="M362.66,-363.83C385.69,-353.57 418.06,-339.13 444.42,-327.38"/>
<polygon fill="black" stroke="black" points="446.13,-330.45 453.84,-323.18 443.28,-324.06 446.13,-330.45"/>
</g>
</g>
</svg>
